<mxfile host="65bd71144e">
    <diagram name="Page-1" id="uGSNIBTzhhLfXkiAcoGn">
        <mxGraphModel dx="992" dy="383" grid="1" gridSize="10" guides="1" tooltips="1" connect="1" arrows="1" fold="1" page="1" pageScale="1" pageWidth="827" pageHeight="1169" math="0" shadow="0">
            <root>
                <mxCell id="0"/>
                <mxCell id="1" parent="0"/>
                <mxCell id="HJgPrh2-Y2blTkaWVyYF-6" value="hop (1)" style="edgeStyle=orthogonalEdgeStyle;rounded=0;orthogonalLoop=1;jettySize=auto;html=1;curved=1;entryX=0.25;entryY=0;entryDx=0;entryDy=0;exitX=0.5;exitY=0;exitDx=0;exitDy=0;" parent="1" source="HJgPrh2-Y2blTkaWVyYF-1" target="HJgPrh2-Y2blTkaWVyYF-5" edge="1">
                    <mxGeometry relative="1" as="geometry">
                        <Array as="points">
                            <mxPoint x="100" y="40"/>
                            <mxPoint x="230" y="40"/>
                        </Array>
                    </mxGeometry>
                </mxCell>
                <mxCell id="HJgPrh2-Y2blTkaWVyYF-1" value="Milan Talker" style="rounded=1;whiteSpace=wrap;html=1;fillColor=#6a00ff;fontColor=#ffffff;strokeColor=#3700CC;" parent="1" vertex="1">
                    <mxGeometry x="40" y="80" width="120" height="60" as="geometry"/>
                </mxCell>
                <mxCell id="HJgPrh2-Y2blTkaWVyYF-9" value="hop (2)" style="edgeStyle=orthogonalEdgeStyle;shape=connector;curved=1;rounded=0;orthogonalLoop=1;jettySize=auto;html=1;exitX=0.75;exitY=0;exitDx=0;exitDy=0;entryX=0.25;entryY=0;entryDx=0;entryDy=0;strokeColor=default;align=center;verticalAlign=middle;fontFamily=Helvetica;fontSize=11;fontColor=default;labelBackgroundColor=default;endArrow=classic;" parent="1" source="HJgPrh2-Y2blTkaWVyYF-5" target="HJgPrh2-Y2blTkaWVyYF-7" edge="1">
                    <mxGeometry relative="1" as="geometry">
                        <Array as="points">
                            <mxPoint x="290" y="40"/>
                            <mxPoint x="390" y="40"/>
                        </Array>
                    </mxGeometry>
                </mxCell>
                <mxCell id="HJgPrh2-Y2blTkaWVyYF-5" value="Switch" style="rounded=1;whiteSpace=wrap;html=1;" parent="1" vertex="1">
                    <mxGeometry x="200" y="80" width="120" height="60" as="geometry"/>
                </mxCell>
                <mxCell id="HJgPrh2-Y2blTkaWVyYF-16" value="hop (3)" style="edgeStyle=orthogonalEdgeStyle;shape=connector;curved=1;rounded=0;orthogonalLoop=1;jettySize=auto;html=1;exitX=0.75;exitY=0;exitDx=0;exitDy=0;entryX=0.25;entryY=0;entryDx=0;entryDy=0;strokeColor=default;align=center;verticalAlign=middle;fontFamily=Helvetica;fontSize=11;fontColor=default;labelBackgroundColor=default;endArrow=classic;" parent="1" source="HJgPrh2-Y2blTkaWVyYF-7" target="HJgPrh2-Y2blTkaWVyYF-10" edge="1">
                    <mxGeometry relative="1" as="geometry">
                        <Array as="points">
                            <mxPoint x="450" y="40"/>
                            <mxPoint x="550" y="40"/>
                        </Array>
                    </mxGeometry>
                </mxCell>
                <mxCell id="HJgPrh2-Y2blTkaWVyYF-7" value="Switch" style="rounded=1;whiteSpace=wrap;html=1;" parent="1" vertex="1">
                    <mxGeometry x="360" y="80" width="120" height="60" as="geometry"/>
                </mxCell>
                <mxCell id="HJgPrh2-Y2blTkaWVyYF-17" value="hop (4)" style="edgeStyle=orthogonalEdgeStyle;shape=connector;curved=1;rounded=0;orthogonalLoop=1;jettySize=auto;html=1;exitX=0.75;exitY=0;exitDx=0;exitDy=0;entryX=0.25;entryY=0;entryDx=0;entryDy=0;strokeColor=default;align=center;verticalAlign=middle;fontFamily=Helvetica;fontSize=11;fontColor=default;labelBackgroundColor=default;endArrow=classic;" parent="1" source="HJgPrh2-Y2blTkaWVyYF-10" target="HJgPrh2-Y2blTkaWVyYF-11" edge="1">
                    <mxGeometry relative="1" as="geometry">
                        <Array as="points">
                            <mxPoint x="610" y="40"/>
                            <mxPoint x="710" y="40"/>
                        </Array>
                    </mxGeometry>
                </mxCell>
                <mxCell id="HJgPrh2-Y2blTkaWVyYF-10" value="Switch" style="rounded=1;whiteSpace=wrap;html=1;" parent="1" vertex="1">
                    <mxGeometry x="520" y="80" width="120" height="60" as="geometry"/>
                </mxCell>
                <mxCell id="HJgPrh2-Y2blTkaWVyYF-18" value="hop (5)" style="edgeStyle=orthogonalEdgeStyle;shape=connector;curved=1;rounded=0;orthogonalLoop=1;jettySize=auto;html=1;exitX=0.75;exitY=0;exitDx=0;exitDy=0;entryX=0.25;entryY=0;entryDx=0;entryDy=0;strokeColor=default;align=center;verticalAlign=middle;fontFamily=Helvetica;fontSize=11;fontColor=default;labelBackgroundColor=default;endArrow=classic;" parent="1" source="HJgPrh2-Y2blTkaWVyYF-11" target="HJgPrh2-Y2blTkaWVyYF-12" edge="1">
                    <mxGeometry relative="1" as="geometry">
                        <Array as="points">
                            <mxPoint x="770" y="40"/>
                            <mxPoint x="870" y="40"/>
                        </Array>
                    </mxGeometry>
                </mxCell>
                <mxCell id="HJgPrh2-Y2blTkaWVyYF-11" value="Switch" style="rounded=1;whiteSpace=wrap;html=1;" parent="1" vertex="1">
                    <mxGeometry x="680" y="80" width="120" height="60" as="geometry"/>
                </mxCell>
                <mxCell id="HJgPrh2-Y2blTkaWVyYF-19" value="hop (6)" style="edgeStyle=orthogonalEdgeStyle;shape=connector;curved=1;rounded=0;orthogonalLoop=1;jettySize=auto;html=1;exitX=0.75;exitY=0;exitDx=0;exitDy=0;entryX=0.25;entryY=0;entryDx=0;entryDy=0;strokeColor=default;align=center;verticalAlign=middle;fontFamily=Helvetica;fontSize=11;fontColor=default;labelBackgroundColor=default;endArrow=classic;" parent="1" source="HJgPrh2-Y2blTkaWVyYF-12" target="HJgPrh2-Y2blTkaWVyYF-13" edge="1">
                    <mxGeometry relative="1" as="geometry">
                        <Array as="points">
                            <mxPoint x="930" y="40"/>
                            <mxPoint x="1030" y="40"/>
                        </Array>
                    </mxGeometry>
                </mxCell>
                <mxCell id="HJgPrh2-Y2blTkaWVyYF-12" value="Switch" style="rounded=1;whiteSpace=wrap;html=1;" parent="1" vertex="1">
                    <mxGeometry x="840" y="80" width="120" height="60" as="geometry"/>
                </mxCell>
                <mxCell id="HJgPrh2-Y2blTkaWVyYF-20" value="hop (7)" style="edgeStyle=orthogonalEdgeStyle;shape=connector;curved=1;rounded=0;orthogonalLoop=1;jettySize=auto;html=1;exitX=0.75;exitY=0;exitDx=0;exitDy=0;entryX=0.5;entryY=0;entryDx=0;entryDy=0;strokeColor=default;align=center;verticalAlign=middle;fontFamily=Helvetica;fontSize=11;fontColor=default;labelBackgroundColor=default;endArrow=classic;" parent="1" source="HJgPrh2-Y2blTkaWVyYF-13" target="HJgPrh2-Y2blTkaWVyYF-15" edge="1">
                    <mxGeometry relative="1" as="geometry">
                        <Array as="points">
                            <mxPoint x="1090" y="40"/>
                            <mxPoint x="1220" y="40"/>
                        </Array>
                    </mxGeometry>
                </mxCell>
                <mxCell id="HJgPrh2-Y2blTkaWVyYF-13" value="Switch" style="rounded=1;whiteSpace=wrap;html=1;" parent="1" vertex="1">
                    <mxGeometry x="1000" y="80" width="120" height="60" as="geometry"/>
                </mxCell>
                <mxCell id="HJgPrh2-Y2blTkaWVyYF-15" value="Milan Listener" style="rounded=1;whiteSpace=wrap;html=1;fillColor=#6a00ff;fontColor=#ffffff;strokeColor=#3700CC;" parent="1" vertex="1">
                    <mxGeometry x="1160" y="80" width="120" height="60" as="geometry"/>
                </mxCell>
                <mxCell id="2" value="Network speed: 100Mbps" style="text;html=1;strokeColor=none;fillColor=none;align=center;verticalAlign=middle;whiteSpace=wrap;rounded=0;" parent="1" vertex="1">
                    <mxGeometry x="40" width="160" height="30" as="geometry"/>
                </mxCell>
            </root>
        </mxGraphModel>
    </diagram>
</mxfile>